<?xml version="1.0" encoding="UTF-8" standalone="no"?>
<!DOCTYPE svg PUBLIC "-//W3C//DTD SVG 1.1//EN"
 "http://www.w3.org/Graphics/SVG/1.1/DTD/svg11.dtd">
<!-- Generated by graphviz version 3.0.0 (20220226.1711)
 -->
<!-- Title: inheritance4bb3a4774f Pages: 1 -->
<svg width="420pt" height="82pt"
 viewBox="0.00 0.00 419.50 82.00" xmlns="http://www.w3.org/2000/svg" xmlns:xlink="http://www.w3.org/1999/xlink">
<g id="graph0" class="graph" transform="scale(1 1) rotate(0) translate(4 78)">
<title>inheritance4bb3a4774f</title>
<!-- Catstate -->
<g id="node1" class="node">
<title>Catstate</title>
<g id="a_node1"><a xlink:href="../timeseries_qmc.loschmidt.html#timeseries_qmc.loschmidt.Catstate" xlink:title="Evaluates Loschmidt echos using of a model Trotterized quantum circuits via the cat&#45;state trick." target="_top">
<polygon fill="white" stroke="black" stroke-width="0.5" points="54,-19 0,-19 0,0 54,0 54,-19"/>
<text text-anchor="middle" x="27" y="-7" font-family="Vera Sans, DejaVu Sans, Liberation Sans, Arial, Helvetica, sans" font-size="10.00">Catstate</text>
</a>
</g>
</g>
<!-- LoschmidtEchoEvaluator -->
<g id="node2" class="node">
<title>LoschmidtEchoEvaluator</title>
<g id="a_node2"><a xlink:href="../timeseries_qmc.loschmidt.html#timeseries_qmc.loschmidt.LoschmidtEchoEvaluator" xlink:title="Abstract base class for evaluating Loschmidt echos." target="_top">
<polygon fill="white" stroke="black" stroke-width="0.5" points="241.5,-74 116.5,-74 116.5,-55 241.5,-55 241.5,-74"/>
<text text-anchor="middle" x="179" y="-62" font-family="Vera Sans, DejaVu Sans, Liberation Sans, Arial, Helvetica, sans" font-size="10.00">LoschmidtEchoEvaluator</text>
</a>
</g>
</g>
<!-- LoschmidtEchoEvaluator&#45;&gt;Catstate -->
<g id="edge1" class="edge">
<title>LoschmidtEchoEvaluator&#45;&gt;Catstate</title>
<path fill="none" stroke="black" stroke-width="0.5" d="M154.58,-54.98C127.84,-45.66 84.99,-30.72 56.42,-20.76"/>
<polygon fill="black" stroke="black" stroke-width="0.5" points="56.91,-19.08 51.61,-19.08 55.76,-22.38 56.91,-19.08"/>
</g>
<!-- ExactLoschmidtEcho -->
<g id="node3" class="node">
<title>ExactLoschmidtEcho</title>
<g id="a_node3"><a xlink:href="../timeseries_qmc.loschmidt.html#timeseries_qmc.loschmidt.ExactLoschmidtEcho" xlink:title="Class for evaluating Loschmidt echos of a model exactly." target="_top">
<polygon fill="white" stroke="black" stroke-width="0.5" points="182,-19 72,-19 72,0 182,0 182,-19"/>
<text text-anchor="middle" x="127" y="-7" font-family="Vera Sans, DejaVu Sans, Liberation Sans, Arial, Helvetica, sans" font-size="10.00">ExactLoschmidtEcho</text>
</a>
</g>
</g>
<!-- LoschmidtEchoEvaluator&#45;&gt;ExactLoschmidtEcho -->
<g id="edge2" class="edge">
<title>LoschmidtEchoEvaluator&#45;&gt;ExactLoschmidtEcho</title>
<path fill="none" stroke="black" stroke-width="0.5" d="M170.41,-54.75C161.86,-46.03 148.64,-32.56 139.04,-22.77"/>
<polygon fill="black" stroke="black" stroke-width="0.5" points="140.18,-21.43 135.43,-19.09 137.68,-23.88 140.18,-21.43"/>
</g>
<!-- Hadamard -->
<g id="node4" class="node">
<title>Hadamard</title>
<g id="a_node4"><a xlink:href="../timeseries_qmc.loschmidt.html#timeseries_qmc.loschmidt.Hadamard" xlink:title="Evaluates Loschmidt echos using of a model Trotterized quantum circuits via the Hadamard test." target="_top">
<polygon fill="white" stroke="black" stroke-width="0.5" points="262,-19 200,-19 200,0 262,0 262,-19"/>
<text text-anchor="middle" x="231" y="-7" font-family="Vera Sans, DejaVu Sans, Liberation Sans, Arial, Helvetica, sans" font-size="10.00">Hadamard</text>
</a>
</g>
</g>
<!-- LoschmidtEchoEvaluator&#45;&gt;Hadamard -->
<g id="edge3" class="edge">
<title>LoschmidtEchoEvaluator&#45;&gt;Hadamard</title>
<path fill="none" stroke="black" stroke-width="0.5" d="M187.59,-54.75C196.14,-46.03 209.36,-32.56 218.96,-22.77"/>
<polygon fill="black" stroke="black" stroke-width="0.5" points="220.32,-23.88 222.57,-19.09 217.82,-21.43 220.32,-23.88"/>
</g>
<!-- TrotterizedLoschmidtEcho -->
<g id="node5" class="node">
<title>TrotterizedLoschmidtEcho</title>
<g id="a_node5"><a xlink:href="../timeseries_qmc.loschmidt.html#timeseries_qmc.loschmidt.TrotterizedLoschmidtEcho" xlink:title="Class for evaluating Loschmidt echos of a model via Trotterization." target="_top">
<polygon fill="white" stroke="black" stroke-width="0.5" points="411.5,-19 280.5,-19 280.5,0 411.5,0 411.5,-19"/>
<text text-anchor="middle" x="346" y="-7" font-family="Vera Sans, DejaVu Sans, Liberation Sans, Arial, Helvetica, sans" font-size="10.00">TrotterizedLoschmidtEcho</text>
</a>
</g>
</g>
<!-- LoschmidtEchoEvaluator&#45;&gt;TrotterizedLoschmidtEcho -->
<g id="edge4" class="edge">
<title>LoschmidtEchoEvaluator&#45;&gt;TrotterizedLoschmidtEcho</title>
<path fill="none" stroke="black" stroke-width="0.5" d="M205.83,-54.98C235.33,-45.62 282.68,-30.6 314.06,-20.64"/>
<polygon fill="black" stroke="black" stroke-width="0.5" points="314.72,-22.26 318.96,-19.08 313.66,-18.93 314.72,-22.26"/>
</g>
</g>
</svg>
