<?xml version="1.0" encoding="UTF-8" standalone="no"?>
<!DOCTYPE svg PUBLIC "-//W3C//DTD SVG 1.1//EN"
 "http://www.w3.org/Graphics/SVG/1.1/DTD/svg11.dtd">
<!-- Generated by graphviz version 3.0.0 (20220226.1711)
 -->
<!-- Title: inheritance6c26084a5b Pages: 1 -->
<svg width="300pt" height="82pt"
 viewBox="0.00 0.00 299.50 82.00" xmlns="http://www.w3.org/2000/svg" xmlns:xlink="http://www.w3.org/1999/xlink">
<g id="graph0" class="graph" transform="scale(1 1) rotate(0) translate(4 78)">
<title>inheritance6c26084a5b</title>
<!-- ClusterUpdate -->
<g id="node1" class="node">
<title>ClusterUpdate</title>
<g id="a_node1"><a xlink:href="../timeseries_qmc.sampling.html#timeseries_qmc.sampling.ClusterUpdate" xlink:title="Sampler of spin product states using Wolff&#39;s cluster update for classical Ising models. For details of the" target="_top">
<polygon fill="white" stroke="black" stroke-width="0.5" points="80,-19 0,-19 0,0 80,0 80,-19"/>
<text text-anchor="middle" x="40" y="-7" font-family="Vera Sans, DejaVu Sans, Liberation Sans, Arial, Helvetica, sans" font-size="10.00">ClusterUpdate</text>
</a>
</g>
</g>
<!-- Sampler -->
<g id="node2" class="node">
<title>Sampler</title>
<g id="a_node2"><a xlink:href="../timeseries_qmc.sampling.html#timeseries_qmc.sampling.Sampler" xlink:title="Abstract base class for sampling quantum states." target="_top">
<polygon fill="white" stroke="black" stroke-width="0.5" points="183,-74 129,-74 129,-55 183,-55 183,-74"/>
<text text-anchor="middle" x="156" y="-62" font-family="Vera Sans, DejaVu Sans, Liberation Sans, Arial, Helvetica, sans" font-size="10.00">Sampler</text>
</a>
</g>
</g>
<!-- Sampler&#45;&gt;ClusterUpdate -->
<g id="edge1" class="edge">
<title>Sampler&#45;&gt;ClusterUpdate</title>
<path fill="none" stroke="black" stroke-width="0.5" d="M137.36,-54.98C117.36,-45.84 85.52,-31.3 63.74,-21.35"/>
<polygon fill="black" stroke="black" stroke-width="0.5" points="64.25,-19.66 58.98,-19.17 62.8,-22.84 64.25,-19.66"/>
</g>
<!-- KagomeClusterUpdate -->
<g id="node3" class="node">
<title>KagomeClusterUpdate</title>
<g id="a_node3"><a xlink:href="../timeseries_qmc.sampling.html#timeseries_qmc.sampling.KagomeClusterUpdate" xlink:title="Sampler of spin product states using cluster update for antiferromagnatic classical Ising model on" target="_top">
<polygon fill="white" stroke="black" stroke-width="0.5" points="214,-19 98,-19 98,0 214,0 214,-19"/>
<text text-anchor="middle" x="156" y="-7" font-family="Vera Sans, DejaVu Sans, Liberation Sans, Arial, Helvetica, sans" font-size="10.00">KagomeClusterUpdate</text>
</a>
</g>
</g>
<!-- Sampler&#45;&gt;KagomeClusterUpdate -->
<g id="edge2" class="edge">
<title>Sampler&#45;&gt;KagomeClusterUpdate</title>
<path fill="none" stroke="black" stroke-width="0.5" d="M156,-54.75C156,-46.41 156,-33.74 156,-24.09"/>
<polygon fill="black" stroke="black" stroke-width="0.5" points="157.75,-24.09 156,-19.09 154.25,-24.09 157.75,-24.09"/>
</g>
<!-- SingleFlip -->
<g id="node4" class="node">
<title>SingleFlip</title>
<g id="a_node4"><a xlink:href="../timeseries_qmc.sampling.html#timeseries_qmc.sampling.SingleFlip" xlink:title="Sampler of spin product states using single spin flips." target="_top">
<polygon fill="white" stroke="black" stroke-width="0.5" points="291.5,-19 232.5,-19 232.5,0 291.5,0 291.5,-19"/>
<text text-anchor="middle" x="262" y="-7" font-family="Vera Sans, DejaVu Sans, Liberation Sans, Arial, Helvetica, sans" font-size="10.00">SingleFlip</text>
</a>
</g>
</g>
<!-- Sampler&#45;&gt;SingleFlip -->
<g id="edge3" class="edge">
<title>Sampler&#45;&gt;SingleFlip</title>
<path fill="none" stroke="black" stroke-width="0.5" d="M173.03,-54.98C191.24,-45.88 220.16,-31.42 240.06,-21.47"/>
<polygon fill="black" stroke="black" stroke-width="0.5" points="240.97,-22.97 244.66,-19.17 239.4,-19.84 240.97,-22.97"/>
</g>
</g>
</svg>
