<?xml version="1.0" encoding="UTF-8" standalone="no"?>
<!DOCTYPE svg PUBLIC "-//W3C//DTD SVG 1.1//EN"
 "http://www.w3.org/Graphics/SVG/1.1/DTD/svg11.dtd">
<!-- Generated by graphviz version 3.0.0 (20220226.1711)
 -->
<!-- Title: inheritance41dd57cd91 Pages: 1 -->
<svg width="475pt" height="82pt"
 viewBox="0.00 0.00 475.00 82.00" xmlns="http://www.w3.org/2000/svg" xmlns:xlink="http://www.w3.org/1999/xlink">
<g id="graph0" class="graph" transform="scale(1 1) rotate(0) translate(4 78)">
<title>inheritance41dd57cd91</title>
<!-- ApproximateBoltzmannWeight -->
<g id="node1" class="node">
<title>ApproximateBoltzmannWeight</title>
<g id="a_node1"><a xlink:href="../timeseries_qmc.boltzmann.html#timeseries_qmc.boltzmann.ApproximateBoltzmannWeight" xlink:title="Class for calculating Botlzmann weights of a model approximately by assuming that the local density of states is" target="_top">
<polygon fill="white" stroke="black" stroke-width="0.5" points="148,-19 0,-19 0,0 148,0 148,-19"/>
<text text-anchor="middle" x="74" y="-7" font-family="Vera Sans, DejaVu Sans, Liberation Sans, Arial, Helvetica, sans" font-size="10.00">ApproximateBoltzmannWeight</text>
</a>
</g>
</g>
<!-- BoltzmannWeightCalculator -->
<g id="node2" class="node">
<title>BoltzmannWeightCalculator</title>
<g id="a_node2"><a xlink:href="../timeseries_qmc.boltzmann.html#timeseries_qmc.boltzmann.BoltzmannWeightCalculator" xlink:title="Abstract base class for calculating Botlzmann weights and the associated local energy moments." target="_top">
<polygon fill="white" stroke="black" stroke-width="0.5" points="355.5,-74 218.5,-74 218.5,-55 355.5,-55 355.5,-74"/>
<text text-anchor="middle" x="287" y="-62" font-family="Vera Sans, DejaVu Sans, Liberation Sans, Arial, Helvetica, sans" font-size="10.00">BoltzmannWeightCalculator</text>
</a>
</g>
</g>
<!-- BoltzmannWeightCalculator&#45;&gt;ApproximateBoltzmannWeight -->
<g id="edge1" class="edge">
<title>BoltzmannWeightCalculator&#45;&gt;ApproximateBoltzmannWeight</title>
<path fill="none" stroke="black" stroke-width="0.5" d="M252.78,-54.98C214.85,-45.55 153.77,-30.35 113.75,-20.39"/>
<polygon fill="black" stroke="black" stroke-width="0.5" points="113.76,-18.59 108.49,-19.08 112.92,-21.99 113.76,-18.59"/>
</g>
<!-- ExactBoltzmannWeight -->
<g id="node3" class="node">
<title>ExactBoltzmannWeight</title>
<g id="a_node3"><a xlink:href="../timeseries_qmc.boltzmann.html#timeseries_qmc.boltzmann.ExactBoltzmannWeight" xlink:title="Class for calculating Botlzmann weights of a model exactly." target="_top">
<polygon fill="white" stroke="black" stroke-width="0.5" points="285.5,-19 166.5,-19 166.5,0 285.5,0 285.5,-19"/>
<text text-anchor="middle" x="226" y="-7" font-family="Vera Sans, DejaVu Sans, Liberation Sans, Arial, Helvetica, sans" font-size="10.00">ExactBoltzmannWeight</text>
</a>
</g>
</g>
<!-- BoltzmannWeightCalculator&#45;&gt;ExactBoltzmannWeight -->
<g id="edge2" class="edge">
<title>BoltzmannWeightCalculator&#45;&gt;ExactBoltzmannWeight</title>
<path fill="none" stroke="black" stroke-width="0.5" d="M277.2,-54.98C267.12,-46.23 251.33,-32.51 239.95,-22.62"/>
<polygon fill="black" stroke="black" stroke-width="0.5" points="240.9,-21.13 235.98,-19.17 238.61,-23.77 240.9,-21.13"/>
</g>
<!-- FourierTransform -->
<g id="node4" class="node">
<title>FourierTransform</title>
<g id="a_node4"><a xlink:href="../timeseries_qmc.boltzmann.html#timeseries_qmc.boltzmann.FourierTransform" xlink:title="Class for calculating Botlzmann weights from time series of Loschmidt echo via direct Fourier trasnfrom." target="_top">
<polygon fill="white" stroke="black" stroke-width="0.5" points="394.5,-19 303.5,-19 303.5,0 394.5,0 394.5,-19"/>
<text text-anchor="middle" x="349" y="-7" font-family="Vera Sans, DejaVu Sans, Liberation Sans, Arial, Helvetica, sans" font-size="10.00">FourierTransform</text>
</a>
</g>
</g>
<!-- BoltzmannWeightCalculator&#45;&gt;FourierTransform -->
<g id="edge3" class="edge">
<title>BoltzmannWeightCalculator&#45;&gt;FourierTransform</title>
<path fill="none" stroke="black" stroke-width="0.5" d="M296.96,-54.98C307.2,-46.23 323.25,-32.51 334.82,-22.62"/>
<polygon fill="black" stroke="black" stroke-width="0.5" points="336.19,-23.75 338.86,-19.17 333.92,-21.09 336.19,-23.75"/>
</g>
<!-- NNLS -->
<g id="node5" class="node">
<title>NNLS</title>
<g id="a_node5"><a xlink:href="../timeseries_qmc.boltzmann.html#timeseries_qmc.boltzmann.NNLS" xlink:title="Class for calculating Botlzmann weights from time series of Loschmidt echo via non&#45;negative least squares." target="_top">
<polygon fill="white" stroke="black" stroke-width="0.5" points="467,-19 413,-19 413,0 467,0 467,-19"/>
<text text-anchor="middle" x="440" y="-7" font-family="Vera Sans, DejaVu Sans, Liberation Sans, Arial, Helvetica, sans" font-size="10.00">NNLS</text>
</a>
</g>
</g>
<!-- BoltzmannWeightCalculator&#45;&gt;NNLS -->
<g id="edge4" class="edge">
<title>BoltzmannWeightCalculator&#45;&gt;NNLS</title>
<path fill="none" stroke="black" stroke-width="0.5" d="M311.58,-54.98C338.49,-45.66 381.63,-30.72 410.39,-20.76"/>
<polygon fill="black" stroke="black" stroke-width="0.5" points="411.07,-22.37 415.23,-19.08 409.93,-19.07 411.07,-22.37"/>
</g>
</g>
</svg>
