<?xml version="1.0" encoding="UTF-8" standalone="no"?>
<!DOCTYPE svg PUBLIC "-//W3C//DTD SVG 1.1//EN"
 "http://www.w3.org/Graphics/SVG/1.1/DTD/svg11.dtd">
<!-- Generated by graphviz version 3.0.0 (20220226.1711)
 -->
<!-- Title: inheritanceac44ac2ff8 Pages: 1 -->
<svg width="284pt" height="82pt"
 viewBox="0.00 0.00 283.50 82.00" xmlns="http://www.w3.org/2000/svg" xmlns:xlink="http://www.w3.org/1999/xlink">
<g id="graph0" class="graph" transform="scale(1 1) rotate(0) translate(4 78)">
<title>inheritanceac44ac2ff8</title>
<!-- HeisenbergBonded -->
<g id="node1" class="node">
<title>HeisenbergBonded</title>
<g id="a_node1"><a xlink:href="../timeseries_qmc.models.html#timeseries_qmc.models.HeisenbergBonded" xlink:title="Class for handling Trotterized time evolution of a general Heisenberg model." target="_top">
<polygon fill="white" stroke="black" stroke-width="0.5" points="99,-19 0,-19 0,0 99,0 99,-19"/>
<text text-anchor="middle" x="49.5" y="-7" font-family="Vera Sans, DejaVu Sans, Liberation Sans, Arial, Helvetica, sans" font-size="10.00">HeisenbergBonded</text>
</a>
</g>
</g>
<!-- Model -->
<g id="node2" class="node">
<title>Model</title>
<g id="a_node2"><a xlink:href="../timeseries_qmc.models.html#timeseries_qmc.models.Model" xlink:title="Abstract base class representing a Trotterized model Hamiltonian." target="_top">
<polygon fill="white" stroke="black" stroke-width="0.5" points="187.5,-74 133.5,-74 133.5,-55 187.5,-55 187.5,-74"/>
<text text-anchor="middle" x="160.5" y="-62" font-family="Vera Sans, DejaVu Sans, Liberation Sans, Arial, Helvetica, sans" font-size="10.00">Model</text>
</a>
</g>
</g>
<!-- Model&#45;&gt;HeisenbergBonded -->
<g id="edge1" class="edge">
<title>Model&#45;&gt;HeisenbergBonded</title>
<path fill="none" stroke="black" stroke-width="0.5" d="M142.67,-54.98C123.52,-45.84 93.06,-31.3 72.21,-21.35"/>
<polygon fill="black" stroke="black" stroke-width="0.5" points="72.92,-19.75 67.66,-19.17 71.42,-22.9 72.92,-19.75"/>
</g>
<!-- HeisenbergXYZ -->
<g id="node3" class="node">
<title>HeisenbergXYZ</title>
<g id="a_node3"><a xlink:href="../timeseries_qmc.models.html#timeseries_qmc.models.HeisenbergXYZ" xlink:title="Class for handling Trotterized time evolution of a general Heisenberg model." target="_top">
<polygon fill="white" stroke="black" stroke-width="0.5" points="203.5,-19 117.5,-19 117.5,0 203.5,0 203.5,-19"/>
<text text-anchor="middle" x="160.5" y="-7" font-family="Vera Sans, DejaVu Sans, Liberation Sans, Arial, Helvetica, sans" font-size="10.00">HeisenbergXYZ</text>
</a>
</g>
</g>
<!-- Model&#45;&gt;HeisenbergXYZ -->
<g id="edge2" class="edge">
<title>Model&#45;&gt;HeisenbergXYZ</title>
<path fill="none" stroke="black" stroke-width="0.5" d="M160.5,-54.75C160.5,-46.41 160.5,-33.74 160.5,-24.09"/>
<polygon fill="black" stroke="black" stroke-width="0.5" points="162.25,-24.09 160.5,-19.09 158.75,-24.09 162.25,-24.09"/>
</g>
<!-- Ising -->
<g id="node4" class="node">
<title>Ising</title>
<g id="a_node4"><a xlink:href="../timeseries_qmc.models.html#timeseries_qmc.models.Ising" xlink:title="Class for obtaining quantum circuit Trotterized time evolution of a Transferse&#45;field Ising model." target="_top">
<polygon fill="white" stroke="black" stroke-width="0.5" points="275.5,-19 221.5,-19 221.5,0 275.5,0 275.5,-19"/>
<text text-anchor="middle" x="248.5" y="-7" font-family="Vera Sans, DejaVu Sans, Liberation Sans, Arial, Helvetica, sans" font-size="10.00">Ising</text>
</a>
</g>
</g>
<!-- Model&#45;&gt;Ising -->
<g id="edge3" class="edge">
<title>Model&#45;&gt;Ising</title>
<path fill="none" stroke="black" stroke-width="0.5" d="M174.64,-54.98C189.56,-46 213.16,-31.79 229.65,-21.85"/>
<polygon fill="black" stroke="black" stroke-width="0.5" points="230.72,-23.25 234.1,-19.17 228.92,-20.25 230.72,-23.25"/>
</g>
</g>
</svg>
